<svg id="my-svg" width="583.4453125" xmlns="http://www.w3.org/2000/svg" xmlns:xlink="http://www.w3.org/1999/xlink" class="erDiagram" height="1033.75" viewBox="0 -47 583.4453125 1033.75" role="graphics-document document" aria-roledescription="er" style="background-color: white;"><style>#my-svg{font-family:serif;font-size:18;fill:#000000;}@keyframes edge-animation-frame{from{stroke-dashoffset:0;}}@keyframes dash{to{stroke-dashoffset:0;}}#my-svg .edge-animation-slow{stroke-dasharray:9,5!important;stroke-dashoffset:900;animation:dash 50s linear infinite;stroke-linecap:round;}#my-svg .edge-animation-fast{stroke-dasharray:9,5!important;stroke-dashoffset:900;animation:dash 20s linear infinite;stroke-linecap:round;}#my-svg .error-icon{fill:#ffffff;}#my-svg .error-text{fill:#000000;stroke:#000000;}#my-svg .edge-thickness-normal{stroke-width:1px;}#my-svg .edge-thickness-thick{stroke-width:3.5px;}#my-svg .edge-pattern-solid{stroke-dasharray:0;}#my-svg .edge-thickness-invisible{stroke-width:0;fill:none;}#my-svg .edge-pattern-dashed{stroke-dasharray:3;}#my-svg .edge-pattern-dotted{stroke-dasharray:2;}#my-svg .marker{fill:#000000;stroke:#000000;}#my-svg .marker.cross{stroke:#000000;}#my-svg svg{font-family:serif;font-size:18;}#my-svg p{margin:0;}#my-svg .entityBox{fill:#ffffff;stroke:#000000;}#my-svg .relationshipLabelBox{fill:#ffffff;opacity:0.7;background-color:#ffffff;}#my-svg .relationshipLabelBox rect{opacity:0.5;}#my-svg .labelBkg{background-color:rgba(255, 255, 255, 0.5);}#my-svg .edgeLabel{background-color:#ffffff;}#my-svg .edgeLabel .label rect{fill:#ffffff;}#my-svg .edgeLabel .label text{fill:#000000;}#my-svg .edgeLabel .label{fill:#000000;font-size:14px;}#my-svg .label{font-family:serif;color:#000000;}#my-svg .edge-pattern-dashed{stroke-dasharray:8,8;}#my-svg .node rect,#my-svg .node circle,#my-svg .node ellipse,#my-svg .node polygon{fill:#ffffff;stroke:#000000;stroke-width:1px;}#my-svg .relationshipLine{stroke:#000000;stroke-width:1px;fill:none;}#my-svg .marker{fill:none!important;stroke:#000000!important;stroke-width:1;}#my-svg [data-look=neo].labelBkg{background-color:rgba(255, 255, 255, 0.5);}#my-svg .cluster rect{fill:#ffffff;stroke:hsl(0, 0%, 90%);stroke-width:1px;}#my-svg .cluster text{fill:#000000;}#my-svg .cluster-label text{fill:#000000;}#my-svg .node .neo-node{stroke:#000000;}#my-svg [data-look="neo"].node rect,#my-svg [data-look="neo"].cluster rect,#my-svg [data-look="neo"].node polygon{stroke:url(#my-svg-gradient);filter:drop-shadow( 1px 2px 2px rgba(185,185,185,1));}#my-svg [data-look="neo"].swimlane.cluster rect{filter:none;}#my-svg [data-look="neo"].node path{stroke:url(#my-svg-gradient);stroke-width:1px;}#my-svg [data-look="neo"].node .outer-path{filter:drop-shadow( 1px 2px 2px rgba(185,185,185,1));}#my-svg [data-look="neo"].node .neo-line path{stroke:#000000;filter:none;}#my-svg [data-look="neo"].node circle{stroke:url(#my-svg-gradient);filter:drop-shadow( 1px 2px 2px rgba(185,185,185,1));}#my-svg [data-look="neo"].node circle .state-start{fill:#000000;}#my-svg [data-look="neo"].icon-shape .icon{fill:url(#my-svg-gradient);filter:drop-shadow( 1px 2px 2px rgba(185,185,185,1));}#my-svg [data-look="neo"].icon-shape .icon-neo path{stroke:url(#my-svg-gradient);filter:drop-shadow( 1px 2px 2px rgba(185,185,185,1));}#my-svg :root{--mermaid-font-family:"trebuchet ms",verdana,arial,sans-serif;}</style><g><defs><marker id="my-svg_er-onlyOneStart" class="marker onlyOne er" refX="0" refY="9" markerWidth="18" markerHeight="18" orient="auto"><path d="M9,0 L9,18 M15,0 L15,18"/></marker></defs><defs><marker id="my-svg_er-onlyOneEnd" class="marker onlyOne er" refX="18" refY="9" markerWidth="18" markerHeight="18" orient="auto"><path d="M3,0 L3,18 M9,0 L9,18"/></marker></defs><defs><marker id="my-svg_er-zeroOrOneStart" class="marker zeroOrOne er" refX="0" refY="9" markerWidth="30" markerHeight="18" orient="auto"><circle fill="white" cx="21" cy="9" r="6"/><path d="M9,0 L9,18"/></marker></defs><defs><marker id="my-svg_er-zeroOrOneEnd" class="marker zeroOrOne er" refX="30" refY="9" markerWidth="30" markerHeight="18" orient="auto"><circle fill="white" cx="9" cy="9" r="6"/><path d="M21,0 L21,18"/></marker></defs><defs><marker id="my-svg_er-oneOrMoreStart" class="marker oneOrMore er" refX="18" refY="18" markerWidth="45" markerHeight="36" orient="auto"><path d="M0,18 Q 18,0 36,18 Q 18,36 0,18 M42,9 L42,27"/></marker></defs><defs><marker id="my-svg_er-oneOrMoreEnd" class="marker oneOrMore er" refX="27" refY="18" markerWidth="45" markerHeight="36" orient="auto"><path d="M3,9 L3,27 M9,18 Q27,0 45,18 Q27,36 9,18"/></marker></defs><defs><marker id="my-svg_er-zeroOrMoreStart" class="marker zeroOrMore er" refX="18" refY="18" markerWidth="57" markerHeight="36" orient="auto"><circle fill="white" cx="48" cy="18" r="6"/><path d="M0,18 Q18,0 36,18 Q18,36 0,18"/></marker></defs><defs><marker id="my-svg_er-zeroOrMoreEnd" class="marker zeroOrMore er" refX="39" refY="18" markerWidth="57" markerHeight="36" orient="auto"><circle fill="white" cx="9" cy="18" r="6"/><path d="M21,18 Q39,0 57,18 Q39,36 21,18"/></marker></defs><g class="root"><g class="clusters"/><g class="edgePaths"><path d="M291.723,336.75L291.723,345.25C291.723,353.75,291.723,370.75,291.723,387.75C291.723,404.75,291.723,421.75,291.723,430.25L291.723,438.75" id="my-svg-id_entity-attempts-0_entity-attempt_questions-1_0" class="edge-thickness-normal edge-pattern-solid relationshipLine" style="undefined;;;undefined" data-edge="true" data-et="edge" data-id="id_entity-attempts-0_entity-attempt_questions-1_0" data-points="W3sieCI6MjkxLjcyMjY1NjI1LCJ5IjozMzYuNzV9LHsieCI6MjkxLjcyMjY1NjI1LCJ5IjozODcuNzV9LHsieCI6MjkxLjcyMjY1NjI1LCJ5Ijo0MzguNzV9XQ==" data-look="classic" marker-start="url(#my-svg_er-onlyOneStart)" marker-end="url(#my-svg_er-zeroOrMoreEnd)"/><path d="M291.723,693L291.723,701.5C291.723,710,291.723,727,291.723,744C291.723,761,291.723,778,291.723,786.5L291.723,795" id="my-svg-id_entity-attempt_questions-1_entity-attempt_responses-2_1" class="edge-thickness-normal edge-pattern-solid relationshipLine" style="undefined;;;undefined" data-edge="true" data-et="edge" data-id="id_entity-attempt_questions-1_entity-attempt_responses-2_1" data-points="W3sieCI6MjkxLjcyMjY1NjI1LCJ5Ijo2OTN9LHsieCI6MjkxLjcyMjY1NjI1LCJ5Ijo3NDR9LHsieCI6MjkxLjcyMjY1NjI1LCJ5Ijo3OTV9XQ==" data-look="classic" marker-start="url(#my-svg_er-onlyOneStart)" marker-end="url(#my-svg_er-zeroOrMoreEnd)"/></g><g class="edgeLabels"><g class="edgeLabel" transform="translate(291.72265625, 387.75)"><g class="label" data-id="id_entity-attempts-0_entity-attempt_questions-1_0" transform="translate(-0.49267578125, -9.500000476837158)"><g><rect class="background" style="" x="-36.21875" y="0" width="73.4296875" height="22"/><text y="-10.1" text-anchor="middle" style=""><tspan class="text-outer-tspan row" x="0" y="-0.1em" dy="1.1em" text-anchor="middle"><tspan font-style="normal" class="text-inner-tspan" font-weight="normal">attempt_id</tspan></tspan></text></g></g></g><g class="edgeLabel" transform="translate(291.72265625, 744)"><g class="label" data-id="id_entity-attempt_questions-1_entity-attempt_responses-2_1" transform="translate(-0.49462890625, -9.500000476837158)"><g><rect class="background" style="" x="-67.328125" y="0" width="135.6484375" height="22"/><text y="-10.1" text-anchor="middle" style=""><tspan class="text-outer-tspan row" x="0" y="-0.1em" dy="1.1em" text-anchor="middle"><tspan font-style="normal" class="text-inner-tspan" font-weight="normal">attempt_question_id</tspan></tspan></text></g></g></g></g><g class="nodes"><g class="node default" id="my-svg-entity-attempts-0" data-look="classic" transform="translate(291.72265625, 172.375)"><g class="outer-path" style=""><path d="M-283.72265625 -164.375 L283.72265625 -164.375 L283.72265625 164.375 L-283.72265625 164.375" stroke="none" stroke-width="0" fill="#ffffff"/><path d="M-283.72265625 -164.375 C-69.44348402937831 -164.375, 144.83568819124338 -164.375, 283.72265625 -164.375 M-283.72265625 -164.375 C-140.023075062639 -164.375, 3.676506124721982 -164.375, 283.72265625 -164.375 M283.72265625 -164.375 C283.72265625 -89.88482871695038, 283.72265625 -15.394657433900761, 283.72265625 164.375 M283.72265625 -164.375 C283.72265625 -63.3447355397832, 283.72265625 37.6855289204336, 283.72265625 164.375 M283.72265625 164.375 C126.75364579676952 164.375, -30.215364656460963 164.375, -283.72265625 164.375 M283.72265625 164.375 C127.52414384172658 164.375, -28.674368566546832 164.375, -283.72265625 164.375 M-283.72265625 164.375 C-283.72265625 76.57468881262457, -283.72265625 -11.225622374750856, -283.72265625 -164.375 M-283.72265625 164.375 C-283.72265625 62.057393393107674, -283.72265625 -40.26021321378465, -283.72265625 -164.375" stroke="#000000" stroke-width="1.3" fill="none" stroke-dasharray="0 0"/></g><g style="" class="row-rect-odd"><path d="M-283.72265625 -127.625 L283.72265625 -127.625 L283.72265625 -91.875 L-283.72265625 -91.875" stroke="none" stroke-width="0" fill="#ffffff"/><path d="M-283.72265625 -127.625 C-97.50199083986473 -127.625, 88.71867457027054 -127.625, 283.72265625 -127.625 M-283.72265625 -127.625 C-57.12127876493898 -127.625, 169.48009872012204 -127.625, 283.72265625 -127.625 M283.72265625 -127.625 C283.72265625 -114.40340998303864, 283.72265625 -101.18181996607727, 283.72265625 -91.875 M283.72265625 -127.625 C283.72265625 -116.97503153643977, 283.72265625 -106.32506307287954, 283.72265625 -91.875 M283.72265625 -91.875 C114.45714782143469 -91.875, -54.80836060713062 -91.875, -283.72265625 -91.875 M283.72265625 -91.875 C114.44691996836605 -91.875, -54.82881631326791 -91.875, -283.72265625 -91.875 M-283.72265625 -91.875 C-283.72265625 -103.77210408675788, -283.72265625 -115.66920817351576, -283.72265625 -127.625 M-283.72265625 -91.875 C-283.72265625 -103.56233826269053, -283.72265625 -115.24967652538106, -283.72265625 -127.625" stroke="#000000" stroke-width="1.3" fill="none" stroke-dasharray="0 0"/></g><g style="" class="row-rect-even"><path d="M-283.72265625 -91.875 L283.72265625 -91.875 L283.72265625 -55.125 L-283.72265625 -55.125" stroke="none" stroke-width="0" fill="#ffffff"/><path d="M-283.72265625 -91.875 C-108.70253527000116 -91.875, 66.31758570999767 -91.875, 283.72265625 -91.875 M-283.72265625 -91.875 C-140.69095405173854 -91.875, 2.3407481465229125 -91.875, 283.72265625 -91.875 M283.72265625 -91.875 C283.72265625 -81.36061383759682, 283.72265625 -70.84622767519363, 283.72265625 -55.125 M283.72265625 -91.875 C283.72265625 -80.96174316944666, 283.72265625 -70.04848633889334, 283.72265625 -55.125 M283.72265625 -55.125 C132.3552427275374 -55.125, -19.012170794925225 -55.125, -283.72265625 -55.125 M283.72265625 -55.125 C135.52950111149468 -55.125, -12.663654027010637 -55.125, -283.72265625 -55.125 M-283.72265625 -55.125 C-283.72265625 -69.76133327144572, -283.72265625 -84.39766654289144, -283.72265625 -91.875 M-283.72265625 -55.125 C-283.72265625 -69.39642736770679, -283.72265625 -83.66785473541358, -283.72265625 -91.875" stroke="#000000" stroke-width="1.3" fill="none" stroke-dasharray="0 0"/></g><g style="" class="row-rect-odd"><path d="M-283.72265625 -55.125 L283.72265625 -55.125 L283.72265625 -18.375 L-283.72265625 -18.375" stroke="none" stroke-width="0" fill="#ffffff"/><path d="M-283.72265625 -55.125 C-139.87949302313993 -55.125, 3.9636702037201417 -55.125, 283.72265625 -55.125 M-283.72265625 -55.125 C-154.38828621452845 -55.125, -25.0539161790569 -55.125, 283.72265625 -55.125 M283.72265625 -55.125 C283.72265625 -43.86557180024294, 283.72265625 -32.60614360048588, 283.72265625 -18.375 M283.72265625 -55.125 C283.72265625 -42.072721920129574, 283.72265625 -29.020443840259144, 283.72265625 -18.375 M283.72265625 -18.375 C64.83810423158403 -18.375, -154.04644778683195 -18.375, -283.72265625 -18.375 M283.72265625 -18.375 C126.39082973276774 -18.375, -30.940996784464517 -18.375, -283.72265625 -18.375 M-283.72265625 -18.375 C-283.72265625 -29.338613129263273, -283.72265625 -40.302226258526545, -283.72265625 -55.125 M-283.72265625 -18.375 C-283.72265625 -31.727720387378866, -283.72265625 -45.08044077475773, -283.72265625 -55.125" stroke="#000000" stroke-width="1.3" fill="none" stroke-dasharray="0 0"/></g><g style="" class="row-rect-even"><path d="M-283.72265625 -18.375 L283.72265625 -18.375 L283.72265625 18.375 L-283.72265625 18.375" stroke="none" stroke-width="0" fill="#ffffff"/><path d="M-283.72265625 -18.375 C-72.34605181345049 -18.375, 139.03055262309903 -18.375, 283.72265625 -18.375 M-283.72265625 -18.375 C-70.99860453575383 -18.375, 141.72544717849235 -18.375, 283.72265625 -18.375 M283.72265625 -18.375 C283.72265625 -4.177756309369874, 283.72265625 10.019487381260252, 283.72265625 18.375 M283.72265625 -18.375 C283.72265625 -10.425629804445508, 283.72265625 -2.4762596088910165, 283.72265625 18.375 M283.72265625 18.375 C62.57554906183344 18.375, -158.57155812633312 18.375, -283.72265625 18.375 M283.72265625 18.375 C81.54454214447611 18.375, -120.63357196104778 18.375, -283.72265625 18.375 M-283.72265625 18.375 C-283.72265625 10.584099297584274, -283.72265625 2.793198595168546, -283.72265625 -18.375 M-283.72265625 18.375 C-283.72265625 10.8579850776371, -283.72265625 3.3409701552741993, -283.72265625 -18.375" stroke="#000000" stroke-width="1.3" fill="none" stroke-dasharray="0 0"/></g><g style="" class="row-rect-odd"><path d="M-283.72265625 18.375 L283.72265625 18.375 L283.72265625 55.125 L-283.72265625 55.125" stroke="none" stroke-width="0" fill="#ffffff"/><path d="M-283.72265625 18.375 C-137.7387755244652 18.375, 8.245105201069578 18.375, 283.72265625 18.375 M-283.72265625 18.375 C-87.070112161413 18.375, 109.58243192717401 18.375, 283.72265625 18.375 M283.72265625 18.375 C283.72265625 32.08662495431079, 283.72265625 45.79824990862158, 283.72265625 55.125 M283.72265625 18.375 C283.72265625 26.609331263384494, 283.72265625 34.84366252676899, 283.72265625 55.125 M283.72265625 55.125 C76.117151127619 55.125, -131.488353994762 55.125, -283.72265625 55.125 M283.72265625 55.125 C129.61502535326568 55.125, -24.492605543468642 55.125, -283.72265625 55.125 M-283.72265625 55.125 C-283.72265625 41.02719220956376, -283.72265625 26.929384419127516, -283.72265625 18.375 M-283.72265625 55.125 C-283.72265625 47.04924877696199, -283.72265625 38.973497553923984, -283.72265625 18.375" stroke="#000000" stroke-width="1.3" fill="none" stroke-dasharray="0 0"/></g><g style="" class="row-rect-even"><path d="M-283.72265625 55.125 L283.72265625 55.125 L283.72265625 90.875 L-283.72265625 90.875" stroke="none" stroke-width="0" fill="#ffffff"/><path d="M-283.72265625 55.125 C-83.59675775190689 55.125, 116.52914074618621 55.125, 283.72265625 55.125 M-283.72265625 55.125 C-69.7347195521192 55.125, 144.2532171457616 55.125, 283.72265625 55.125 M283.72265625 55.125 C283.72265625 66.28449836033992, 283.72265625 77.44399672067985, 283.72265625 90.875 M283.72265625 55.125 C283.72265625 64.23707635597248, 283.72265625 73.34915271194497, 283.72265625 90.875 M283.72265625 90.875 C68.88168370722076 90.875, -145.95928883555848 90.875, -283.72265625 90.875 M283.72265625 90.875 C124.20217384924916 90.875, -35.31830855150167 90.875, -283.72265625 90.875 M-283.72265625 90.875 C-283.72265625 80.64162350007925, -283.72265625 70.40824700015848, -283.72265625 55.125 M-283.72265625 90.875 C-283.72265625 82.22134526185746, -283.72265625 73.56769052371492, -283.72265625 55.125" stroke="#000000" stroke-width="1.3" fill="none" stroke-dasharray="0 0"/></g><g style="" class="row-rect-odd"><path d="M-283.72265625 90.875 L283.72265625 90.875 L283.72265625 127.625 L-283.72265625 127.625" stroke="none" stroke-width="0" fill="#ffffff"/><path d="M-283.72265625 90.875 C-91.88270280782851 90.875, 99.95725063434298 90.875, 283.72265625 90.875 M-283.72265625 90.875 C-147.59512997292842 90.875, -11.467603695856837 90.875, 283.72265625 90.875 M283.72265625 90.875 C283.72265625 104.01601683415207, 283.72265625 117.15703366830414, 283.72265625 127.625 M283.72265625 90.875 C283.72265625 100.09278910707118, 283.72265625 109.31057821414237, 283.72265625 127.625 M283.72265625 127.625 C92.09721346148035 127.625, -99.5282293270393 127.625, -283.72265625 127.625 M283.72265625 127.625 C64.35980591684017 127.625, -155.00304441631965 127.625, -283.72265625 127.625 M-283.72265625 127.625 C-283.72265625 113.63471821796897, -283.72265625 99.64443643593793, -283.72265625 90.875 M-283.72265625 127.625 C-283.72265625 119.79585289402469, -283.72265625 111.96670578804937, -283.72265625 90.875" stroke="#000000" stroke-width="1.3" fill="none" stroke-dasharray="0 0"/></g><g style="" class="row-rect-even"><path d="M-283.72265625 127.625 L283.72265625 127.625 L283.72265625 164.375 L-283.72265625 164.375" stroke="none" stroke-width="0" fill="#ffffff"/><path d="M-283.72265625 127.625 C-64.31947190283202 127.625, 155.08371244433596 127.625, 283.72265625 127.625 M-283.72265625 127.625 C-124.0343315919092 127.625, 35.65399306618161 127.625, 283.72265625 127.625 M283.72265625 127.625 C283.72265625 135.2002486938209, 283.72265625 142.7754973876418, 283.72265625 164.375 M283.72265625 127.625 C283.72265625 138.62618602513191, 283.72265625 149.62737205026383, 283.72265625 164.375 M283.72265625 164.375 C162.90167312430646 164.375, 42.08068999861294 164.375, -283.72265625 164.375 M283.72265625 164.375 C139.33681188209354 164.375, -5.049032485812916 164.375, -283.72265625 164.375 M-283.72265625 164.375 C-283.72265625 152.86239971521368, -283.72265625 141.34979943042737, -283.72265625 127.625 M-283.72265625 164.375 C-283.72265625 151.9864768344316, -283.72265625 139.5979536688632, -283.72265625 127.625" stroke="#000000" stroke-width="1.3" fill="none" stroke-dasharray="0 0"/></g><g class="label name" transform="translate(-27.109375, -155)" style=""><g><rect class="background" style="stroke: none"/></g><text y="-10.1" style=""><tspan class="text-outer-tspan row" x="0" y="-0.1em" dy="1.1em"><tspan font-style="normal" class="text-inner-tspan" font-weight="normal">attempts</tspan></tspan></text></g><g class="label attribute-type" transform="translate(-271.22265625, -118.25)" style=""><g><rect class="background" style="stroke: none"/></g><text y="-10.1" style=""><tspan class="text-outer-tspan row" x="0" y="-0.1em" dy="1.1em"><tspan font-style="normal" class="text-inner-tspan" font-weight="normal">uuid</tspan></tspan></text></g><g class="label attribute-name" transform="translate(-179.56640625, -118.25)" style=""><g><rect class="background" style="stroke: none"/></g><text y="-10.1" style=""><tspan class="text-outer-tspan row" x="0" y="-0.1em" dy="1.1em"><tspan font-style="normal" class="text-inner-tspan" font-weight="normal">id</tspan></tspan></text></g><g class="label attribute-keys" transform="translate(-62.01953125, -118.25)" style=""><g><rect class="background" style="stroke: none"/></g><text y="-10.1" style=""><tspan class="text-outer-tspan row" x="0" y="-0.1em" dy="1.1em"><tspan font-style="normal" class="text-inner-tspan" font-weight="normal">PK</tspan></tspan></text></g><g class="label attribute-comment" transform="translate(-16.12109375, -118.25)" style=""><g><rect class="background" style="stroke: none"/></g><text y="-10.1" style=""><tspan class="text-outer-tspan row" x="0" y="-0.1em" dy="1.1em"/></text></g><g class="label attribute-type" transform="translate(-271.22265625, -82.5)" style=""><g><rect class="background" style="stroke: none"/></g><text y="-10.1" style=""><tspan class="text-outer-tspan row" x="0" y="-0.1em" dy="1.1em"><tspan font-style="normal" class="text-inner-tspan" font-weight="normal">uuid</tspan></tspan></text></g><g class="label attribute-name" transform="translate(-179.56640625, -82.5)" style=""><g><rect class="background" style="stroke: none"/></g><text y="-10.1" style=""><tspan class="text-outer-tspan row" x="0" y="-0.1em" dy="1.1em"><tspan font-style="normal" class="text-inner-tspan" font-weight="normal">assessment_id</tspan></tspan></text></g><g class="label attribute-keys" transform="translate(-62.01953125, -82.5)" style=""><g><rect class="background" style="stroke: none"/></g><text y="-10.1" style=""><tspan class="text-outer-tspan row" x="0" y="-0.1em" dy="1.1em"><tspan font-style="normal" class="text-inner-tspan" font-weight="normal">FK</tspan></tspan></text></g><g class="label attribute-comment" transform="translate(-16.12109375, -82.5)" style=""><g><rect class="background" style="stroke: none"/></g><text y="-10.1" style=""><tspan class="text-outer-tspan row" x="0" y="-0.1em" dy="1.1em"><tspan font-style="normal" class="text-inner-tspan" font-weight="normal">refs</tspan><tspan font-style="normal" class="text-inner-tspan" font-weight="normal"> assessments</tspan><tspan font-style="normal" class="text-inner-tspan" font-weight="normal"> figure</tspan></tspan></text></g><g class="label attribute-type" transform="translate(-271.22265625, -45.75)" style=""><g><rect class="background" style="stroke: none"/></g><text y="-10.1" style=""><tspan class="text-outer-tspan row" x="0" y="-0.1em" dy="1.1em"><tspan font-style="normal" class="text-inner-tspan" font-weight="normal">uuid</tspan></tspan></text></g><g class="label attribute-name" transform="translate(-179.56640625, -45.75)" style=""><g><rect class="background" style="stroke: none"/></g><text y="-10.1" style=""><tspan class="text-outer-tspan row" x="0" y="-0.1em" dy="1.1em"><tspan font-style="normal" class="text-inner-tspan" font-weight="normal">student_id</tspan></tspan></text></g><g class="label attribute-keys" transform="translate(-62.01953125, -45.75)" style=""><g><rect class="background" style="stroke: none"/></g><text y="-10.1" style=""><tspan class="text-outer-tspan row" x="0" y="-0.1em" dy="1.1em"><tspan font-style="normal" class="text-inner-tspan" font-weight="normal">FK</tspan></tspan></text></g><g class="label attribute-comment" transform="translate(-16.12109375, -45.75)" style=""><g><rect class="background" style="stroke: none"/></g><text y="-10.1" style=""><tspan class="text-outer-tspan row" x="0" y="-0.1em" dy="1.1em"><tspan font-style="normal" class="text-inner-tspan" font-weight="normal">refs</tspan><tspan font-style="normal" class="text-inner-tspan" font-weight="normal"> memberships/identity</tspan></tspan></text></g><g class="label attribute-type" transform="translate(-271.22265625, -9)" style=""><g><rect class="background" style="stroke: none"/></g><text y="-10.1" style=""><tspan class="text-outer-tspan row" x="0" y="-0.1em" dy="1.1em"><tspan font-style="normal" class="text-inner-tspan" font-weight="normal">varchar</tspan></tspan></text></g><g class="label attribute-name" transform="translate(-179.56640625, -9)" style=""><g><rect class="background" style="stroke: none"/></g><text y="-10.1" style=""><tspan class="text-outer-tspan row" x="0" y="-0.1em" dy="1.1em"><tspan font-style="normal" class="text-inner-tspan" font-weight="normal">status</tspan></tspan></text></g><g class="label attribute-keys" transform="translate(-62.01953125, -9)" style=""><g><rect class="background" style="stroke: none"/></g><text y="-10.1" style=""><tspan class="text-outer-tspan row" x="0" y="-0.1em" dy="1.1em"/></text></g><g class="label attribute-comment" transform="translate(-16.12109375, -9)" style=""><g><rect class="background" style="stroke: none"/></g><text y="-10.1" style=""><tspan class="text-outer-tspan row" x="0" y="-0.1em" dy="1.1em"><tspan font-style="normal" class="text-inner-tspan" font-weight="normal">IN_PROGRESS</tspan><tspan font-style="normal" class="text-inner-tspan" font-weight="normal"> |</tspan><tspan font-style="normal" class="text-inner-tspan" font-weight="normal"> SUBMITTED</tspan><tspan font-style="normal" class="text-inner-tspan" font-weight="normal"> |</tspan><tspan font-style="normal" class="text-inner-tspan" font-weight="normal"> EXPIRED</tspan></tspan></text></g><g class="label attribute-type" transform="translate(-271.22265625, 27.75)" style=""><g><rect class="background" style="stroke: none"/></g><text y="-10.1" style=""><tspan class="text-outer-tspan row" x="0" y="-0.1em" dy="1.1em"><tspan font-style="normal" class="text-inner-tspan" font-weight="normal">timestamp</tspan></tspan></text></g><g class="label attribute-name" transform="translate(-179.56640625, 27.75)" style=""><g><rect class="background" style="stroke: none"/></g><text y="-10.1" style=""><tspan class="text-outer-tspan row" x="0" y="-0.1em" dy="1.1em"><tspan font-style="normal" class="text-inner-tspan" font-weight="normal">deadline</tspan></tspan></text></g><g class="label attribute-keys" transform="translate(-62.01953125, 27.75)" style=""><g><rect class="background" style="stroke: none"/></g><text y="-10.1" style=""><tspan class="text-outer-tspan row" x="0" y="-0.1em" dy="1.1em"/></text></g><g class="label attribute-comment" transform="translate(-16.12109375, 27.75)" style=""><g><rect class="background" style="stroke: none"/></g><text y="-10.1" style=""><tspan class="text-outer-tspan row" x="0" y="-0.1em" dy="1.1em"/></text></g><g class="label attribute-type" transform="translate(-271.22265625, 64.5)" style=""><g><rect class="background" style="stroke: none"/></g><text y="-10.1" style=""><tspan class="text-outer-tspan row" x="0" y="-0.1em" dy="1.1em"><tspan font-style="normal" class="text-inner-tspan" font-weight="normal">int</tspan></tspan></text></g><g class="label attribute-name" transform="translate(-179.56640625, 64.5)" style=""><g><rect class="background" style="stroke: none"/></g><text y="-10.1" style=""><tspan class="text-outer-tspan row" x="0" y="-0.1em" dy="1.1em"><tspan font-style="normal" class="text-inner-tspan" font-weight="normal">score</tspan></tspan></text></g><g class="label attribute-keys" transform="translate(-62.01953125, 64.5)" style=""><g><rect class="background" style="stroke: none"/></g><text y="-10.1" style=""><tspan class="text-outer-tspan row" x="0" y="-0.1em" dy="1.1em"/></text></g><g class="label attribute-comment" transform="translate(-16.12109375, 64.5)" style=""><g><rect class="background" style="stroke: none"/></g><text y="-10.1" style=""><tspan class="text-outer-tspan row" x="0" y="-0.1em" dy="1.1em"/></text></g><g class="label attribute-type" transform="translate(-271.22265625, 100.25)" style=""><g><rect class="background" style="stroke: none"/></g><text y="-10.1" style=""><tspan class="text-outer-tspan row" x="0" y="-0.1em" dy="1.1em"><tspan font-style="normal" class="text-inner-tspan" font-weight="normal">int</tspan></tspan></text></g><g class="label attribute-name" transform="translate(-179.56640625, 100.25)" style=""><g><rect class="background" style="stroke: none"/></g><text y="-10.1" style=""><tspan class="text-outer-tspan row" x="0" y="-0.1em" dy="1.1em"><tspan font-style="normal" class="text-inner-tspan" font-weight="normal">total_marks</tspan></tspan></text></g><g class="label attribute-keys" transform="translate(-62.01953125, 100.25)" style=""><g><rect class="background" style="stroke: none"/></g><text y="-10.1" style=""><tspan class="text-outer-tspan row" x="0" y="-0.1em" dy="1.1em"/></text></g><g class="label attribute-comment" transform="translate(-16.12109375, 100.25)" style=""><g><rect class="background" style="stroke: none"/></g><text y="-10.1" style=""><tspan class="text-outer-tspan row" x="0" y="-0.1em" dy="1.1em"/></text></g><g class="label attribute-type" transform="translate(-271.22265625, 137)" style=""><g><rect class="background" style="stroke: none"/></g><text y="-10.1" style=""><tspan class="text-outer-tspan row" x="0" y="-0.1em" dy="1.1em"><tspan font-style="normal" class="text-inner-tspan" font-weight="normal">timestamp</tspan></tspan></text></g><g class="label attribute-name" transform="translate(-179.56640625, 137)" style=""><g><rect class="background" style="stroke: none"/></g><text y="-10.1" style=""><tspan class="text-outer-tspan row" x="0" y="-0.1em" dy="1.1em"><tspan font-style="normal" class="text-inner-tspan" font-weight="normal">submitted_at</tspan></tspan></text></g><g class="label attribute-keys" transform="translate(-62.01953125, 137)" style=""><g><rect class="background" style="stroke: none"/></g><text y="-10.1" style=""><tspan class="text-outer-tspan row" x="0" y="-0.1em" dy="1.1em"/></text></g><g class="label attribute-comment" transform="translate(-16.12109375, 137)" style=""><g><rect class="background" style="stroke: none"/></g><text y="-10.1" style=""><tspan class="text-outer-tspan row" x="0" y="-0.1em" dy="1.1em"/></text></g><g class="divider"><path d="M-283.72265625 -127.62505 L-283.72265625 -127.62495 L283.72265625 -127.62495 L283.72265625 -127.62505" stroke="none" stroke-width="0" fill="#ffffff" fill-rule="evenodd"/><path d="M-283.72265625 -127.62505 C-283.72265625 -127.62501751622904, -283.72265625 -127.62498503245806, -283.72265625 -127.62495 M-283.72265625 -127.62505 C-283.72265625 -127.6250163465555, -283.72265625 -127.62498269311098, -283.72265625 -127.62495 M-283.72265625 -127.62495 C-61.0942002960611 -127.62495, 161.5342556578778 -127.62495, 283.72265625 -127.62495 M-283.72265625 -127.62495 C-157.46985976019363 -127.62495, -31.217063270387257 -127.62495, 283.72265625 -127.62495 M283.72265625 -127.62495 C283.72265625 -127.62497358954418, 283.72265625 -127.62499717908837, 283.72265625 -127.62505 M283.72265625 -127.62495 C283.72265625 -127.62497955530704, 283.72265625 -127.62500911061407, 283.72265625 -127.62505 M283.72265625 -127.62505 C155.67825723875117 -127.62505, 27.633858227502344 -127.62505, -283.72265625 -127.62505 M283.72265625 -127.62505 C120.96385722438856 -127.62505, -41.794941801222876 -127.62505, -283.72265625 -127.62505" stroke="#000000" stroke-width="1.3" fill="none" stroke-dasharray="0 0"/></g><g class="divider"><path d="M-192.06645625 -127.625 L-192.06635625 -127.625 L-192.06635625 164.375 L-192.06645625 164.375" stroke="none" stroke-width="0" fill="#ffffff" fill-rule="evenodd"/><path d="M-192.06645625 -127.625 C-192.06641806999582 -127.625, -192.06637988999168 -127.625, -192.06635625 -127.625 M-192.06645625 -127.625 C-192.06643482610392 -127.625, -192.06641340220787 -127.625, -192.06635625 -127.625 M-192.06635625 -127.625 C-192.06635625 -55.9584814558914, -192.06635625 15.708037088217196, -192.06635625 164.375 M-192.06635625 -127.625 C-192.06635625 -22.915264726148166, -192.06635625 81.79447054770367, -192.06635625 164.375 M-192.06635625 164.375 C-192.06639560981145 164.375, -192.06643496962292 164.375, -192.06645625 164.375 M-192.06635625 164.375 C-192.06638762324184 164.375, -192.0664189964837 164.375, -192.06645625 164.375 M-192.06645625 164.375 C-192.06645625 102.34480893855287, -192.06645625 40.314617877105746, -192.06645625 -127.625 M-192.06645625 164.375 C-192.06645625 104.57785678162259, -192.06645625 44.78071356324517, -192.06645625 -127.625" stroke="#000000" stroke-width="1.3" fill="none" stroke-dasharray="0 0"/></g><g class="divider"><path d="M-74.51958125 -127.625 L-74.51948125 -127.625 L-74.51948125 164.375 L-74.51958125 164.375" stroke="none" stroke-width="0" fill="#ffffff" fill-rule="evenodd"/><path d="M-74.51958125 -127.625 C-74.51955813627482 -127.625, -74.51953502254963 -127.625, -74.51948125 -127.625 M-74.51958125 -127.625 C-74.51954502547771 -127.625, -74.51950880095544 -127.625, -74.51948125 -127.625 M-74.51948125 -127.625 C-74.51948125 -23.596124246219645, -74.51948125 80.43275150756071, -74.51948125 164.375 M-74.51948125 -127.625 C-74.51948125 -13.349145874187315, -74.51948125 100.92670825162537, -74.51948125 164.375 M-74.51948125 164.375 C-74.51950143595967 164.375, -74.51952162191935 164.375, -74.51958125 164.375 M-74.51948125 164.375 C-74.51951101099807 164.375, -74.51954077199616 164.375, -74.51958125 164.375 M-74.51958125 164.375 C-74.51958125 64.04330948932873, -74.51958125 -36.28838102134253, -74.51958125 -127.625 M-74.51958125 164.375 C-74.51958125 103.00603765277978, -74.51958125 41.63707530555958, -74.51958125 -127.625" stroke="#000000" stroke-width="1.3" fill="none" stroke-dasharray="0 0"/></g><g class="divider"><path d="M-28.62114375 -127.625 L-28.62104375 -127.625 L-28.62104375 164.375 L-28.62114375 164.375" stroke="none" stroke-width="0" fill="#ffffff" fill-rule="evenodd"/><path d="M-28.62114375 -127.625 C-28.62110602419593 -127.625, -28.621068298391865 -127.625, -28.62104375 -127.625 M-28.62114375 -127.625 C-28.62111545391971 -127.625, -28.621087157839423 -127.625, -28.62104375 -127.625 M-28.62104375 -127.625 C-28.62104375 -57.49211167791189, -28.62104375 12.640776644176213, -28.62104375 164.375 M-28.62104375 -127.625 C-28.62104375 -21.8882161151831, -28.62104375 83.8485677696338, -28.62104375 164.375 M-28.62104375 164.375 C-28.62107312932889 164.375, -28.621102508657785 164.375, -28.62114375 164.375 M-28.62104375 164.375 C-28.621065650271053 164.375, -28.621087550542107 164.375, -28.62114375 164.375 M-28.62114375 164.375 C-28.62114375 101.26302850053324, -28.62114375 38.15105700106648, -28.62114375 -127.625 M-28.62114375 164.375 C-28.62114375 91.9261060104558, -28.62114375 19.477212020911594, -28.62114375 -127.625" stroke="#000000" stroke-width="1.3" fill="none" stroke-dasharray="0 0"/></g><g class="divider"><path d="M-283.72265625 -127.62505 L-283.72265625 -127.62495 L283.72265625 -127.62495 L283.72265625 -127.62505" stroke="none" stroke-width="0" fill="#ffffff" fill-rule="evenodd"/><path d="M-283.72265625 -127.62505 C-283.72265625 -127.62502928336524, -283.72265625 -127.62500856673047, -283.72265625 -127.62495 M-283.72265625 -127.62505 C-283.72265625 -127.625014741309, -283.72265625 -127.624979482618, -283.72265625 -127.62495 M-283.72265625 -127.62495 C-71.17307661103357 -127.62495, 141.37650302793287 -127.62495, 283.72265625 -127.62495 M-283.72265625 -127.62495 C-142.24080892332975 -127.62495, -0.7589615966595034 -127.62495, 283.72265625 -127.62495 M283.72265625 -127.62495 C283.72265625 -127.62497570993392, 283.72265625 -127.62500141986784, 283.72265625 -127.62505 M283.72265625 -127.62495 C283.72265625 -127.62497394196458, 283.72265625 -127.62499788392915, 283.72265625 -127.62505 M283.72265625 -127.62505 C150.50630377210905 -127.62505, 17.2899512942181 -127.62505, -283.72265625 -127.62505 M283.72265625 -127.62505 C116.82000359762125 -127.62505, -50.082649054757496 -127.62505, -283.72265625 -127.62505" stroke="#000000" stroke-width="1.3" fill="none" stroke-dasharray="0 0"/></g></g><g class="node default" id="my-svg-entity-attempt_questions-1" data-look="classic" transform="translate(291.72265625, 565.875)"><g class="outer-path" style=""><path d="M-168.44140625 -127.125 L168.44140625 -127.125 L168.44140625 127.125 L-168.44140625 127.125" stroke="none" stroke-width="0" fill="#ffffff"/><path d="M-168.44140625 -127.125 C-97.861922457645 -127.125, -27.282438665289988 -127.125, 168.44140625 -127.125 M-168.44140625 -127.125 C-37.319986986483116 -127.125, 93.80143227703377 -127.125, 168.44140625 -127.125 M168.44140625 -127.125 C168.44140625 -62.94752156735407, 168.44140625 1.2299568652918538, 168.44140625 127.125 M168.44140625 -127.125 C168.44140625 -34.017959410756575, 168.44140625 59.08908117848685, 168.44140625 127.125 M168.44140625 127.125 C86.70708903211894 127.125, 4.972771814237888 127.125, -168.44140625 127.125 M168.44140625 127.125 C76.39113437367178 127.125, -15.65913750265645 127.125, -168.44140625 127.125 M-168.44140625 127.125 C-168.44140625 26.59826755475403, -168.44140625 -73.92846489049194, -168.44140625 -127.125 M-168.44140625 127.125 C-168.44140625 60.66988722868648, -168.44140625 -5.785225542627046, -168.44140625 -127.125" stroke="#000000" stroke-width="1.3" fill="none" stroke-dasharray="0 0"/></g><g style="" class="row-rect-odd"><path d="M-168.44140625 -90.375 L168.44140625 -90.375 L168.44140625 -54.625 L-168.44140625 -54.625" stroke="none" stroke-width="0" fill="#ffffff"/><path d="M-168.44140625 -90.375 C-85.47252703931197 -90.375, -2.50364782862394 -90.375, 168.44140625 -90.375 M-168.44140625 -90.375 C-66.38106852501737 -90.375, 35.67926919996526 -90.375, 168.44140625 -90.375 M168.44140625 -90.375 C168.44140625 -77.70144082977893, 168.44140625 -65.02788165955785, 168.44140625 -54.625 M168.44140625 -90.375 C168.44140625 -78.42075361006378, 168.44140625 -66.46650722012757, 168.44140625 -54.625 M168.44140625 -54.625 C78.27319016873679 -54.625, -11.895025912526421 -54.625, -168.44140625 -54.625 M168.44140625 -54.625 C54.06292909294427 -54.625, -60.315548064111454 -54.625, -168.44140625 -54.625 M-168.44140625 -54.625 C-168.44140625 -68.4640127702862, -168.44140625 -82.3030255405724, -168.44140625 -90.375 M-168.44140625 -54.625 C-168.44140625 -67.64270037398359, -168.44140625 -80.66040074796717, -168.44140625 -90.375" stroke="#000000" stroke-width="1.3" fill="none" stroke-dasharray="0 0"/></g><g style="" class="row-rect-even"><path d="M-168.44140625 -54.625 L168.44140625 -54.625 L168.44140625 -17.875 L-168.44140625 -17.875" stroke="none" stroke-width="0" fill="#ffffff"/><path d="M-168.44140625 -54.625 C-52.99777456997754 -54.625, 62.445857110044926 -54.625, 168.44140625 -54.625 M-168.44140625 -54.625 C-51.52011623619062 -54.625, 65.40117377761877 -54.625, 168.44140625 -54.625 M168.44140625 -54.625 C168.44140625 -43.81783637313229, 168.44140625 -33.010672746264575, 168.44140625 -17.875 M168.44140625 -54.625 C168.44140625 -41.06090850193875, 168.44140625 -27.496817003877496, 168.44140625 -17.875 M168.44140625 -17.875 C70.74347763482288 -17.875, -26.95445098035424 -17.875, -168.44140625 -17.875 M168.44140625 -17.875 C54.8983317910421 -17.875, -58.64474266791581 -17.875, -168.44140625 -17.875 M-168.44140625 -17.875 C-168.44140625 -27.280617836945655, -168.44140625 -36.68623567389131, -168.44140625 -54.625 M-168.44140625 -17.875 C-168.44140625 -30.41521970337276, -168.44140625 -42.95543940674552, -168.44140625 -54.625" stroke="#000000" stroke-width="1.3" fill="none" stroke-dasharray="0 0"/></g><g style="" class="row-rect-odd"><path d="M-168.44140625 -17.875 L168.44140625 -17.875 L168.44140625 18.875 L-168.44140625 18.875" stroke="none" stroke-width="0" fill="#ffffff"/><path d="M-168.44140625 -17.875 C-82.69027133692273 -17.875, 3.0608635761545315 -17.875, 168.44140625 -17.875 M-168.44140625 -17.875 C-58.019875100430994 -17.875, 52.40165604913801 -17.875, 168.44140625 -17.875 M168.44140625 -17.875 C168.44140625 -4.851866467096842, 168.44140625 8.171267065806315, 168.44140625 18.875 M168.44140625 -17.875 C168.44140625 -8.667007690839581, 168.44140625 0.540984618320838, 168.44140625 18.875 M168.44140625 18.875 C59.050080758444295 18.875, -50.34124473311141 18.875, -168.44140625 18.875 M168.44140625 18.875 C37.67525838874596 18.875, -93.09088947250808 18.875, -168.44140625 18.875 M-168.44140625 18.875 C-168.44140625 11.464297912327282, -168.44140625 4.0535958246545665, -168.44140625 -17.875 M-168.44140625 18.875 C-168.44140625 11.086920798134773, -168.44140625 3.298841596269545, -168.44140625 -17.875" stroke="#000000" stroke-width="1.3" fill="none" stroke-dasharray="0 0"/></g><g style="" class="row-rect-even"><path d="M-168.44140625 18.875 L168.44140625 18.875 L168.44140625 54.625 L-168.44140625 54.625" stroke="none" stroke-width="0" fill="#ffffff"/><path d="M-168.44140625 18.875 C-80.1910094925898 18.875, 8.059387264820401 18.875, 168.44140625 18.875 M-168.44140625 18.875 C-60.69149083613824 18.875, 47.058424577723514 18.875, 168.44140625 18.875 M168.44140625 18.875 C168.44140625 32.698750959014674, 168.44140625 46.52250191802935, 168.44140625 54.625 M168.44140625 18.875 C168.44140625 30.908342300677173, 168.44140625 42.941684601354346, 168.44140625 54.625 M168.44140625 54.625 C64.08118800831124 54.625, -40.27903023337751 54.625, -168.44140625 54.625 M168.44140625 54.625 C93.05151399875614 54.625, 17.66162174751227 54.625, -168.44140625 54.625 M-168.44140625 54.625 C-168.44140625 46.94838264911347, -168.44140625 39.27176529822693, -168.44140625 18.875 M-168.44140625 54.625 C-168.44140625 41.05996919863851, -168.44140625 27.494938397277018, -168.44140625 18.875" stroke="#000000" stroke-width="1.3" fill="none" stroke-dasharray="0 0"/></g><g style="" class="row-rect-odd"><path d="M-168.44140625 54.625 L168.44140625 54.625 L168.44140625 90.375 L-168.44140625 90.375" stroke="none" stroke-width="0" fill="#ffffff"/><path d="M-168.44140625 54.625 C-57.35823971078716 54.625, 53.72492682842568 54.625, 168.44140625 54.625 M-168.44140625 54.625 C-62.846724531804796 54.625, 42.74795718639041 54.625, 168.44140625 54.625 M168.44140625 54.625 C168.44140625 65.97027397358211, 168.44140625 77.3155479471642, 168.44140625 90.375 M168.44140625 54.625 C168.44140625 68.76472618296937, 168.44140625 82.90445236593874, 168.44140625 90.375 M168.44140625 90.375 C86.3493248315197 90.375, 4.25724341303939 90.375, -168.44140625 90.375 M168.44140625 90.375 C96.79527194088583 90.375, 25.14913763177165 90.375, -168.44140625 90.375 M-168.44140625 90.375 C-168.44140625 76.29750787578345, -168.44140625 62.220015751566905, -168.44140625 54.625 M-168.44140625 90.375 C-168.44140625 76.20350058815836, -168.44140625 62.03200117631674, -168.44140625 54.625" stroke="#000000" stroke-width="1.3" fill="none" stroke-dasharray="0 0"/></g><g style="" class="row-rect-even"><path d="M-168.44140625 90.375 L168.44140625 90.375 L168.44140625 127.125 L-168.44140625 127.125" stroke="none" stroke-width="0" fill="#ffffff"/><path d="M-168.44140625 90.375 C-39.09445346101222 90.375, 90.25249932797556 90.375, 168.44140625 90.375 M-168.44140625 90.375 C-71.85316491258857 90.375, 24.735076424822864 90.375, 168.44140625 90.375 M168.44140625 90.375 C168.44140625 104.31006457040425, 168.44140625 118.24512914080849, 168.44140625 127.125 M168.44140625 90.375 C168.44140625 101.54898084995725, 168.44140625 112.72296169991449, 168.44140625 127.125 M168.44140625 127.125 C40.93098627162708 127.125, -86.57943370674585 127.125, -168.44140625 127.125 M168.44140625 127.125 C38.99159901141488 127.125, -90.45820822717025 127.125, -168.44140625 127.125 M-168.44140625 127.125 C-168.44140625 113.42067604354484, -168.44140625 99.71635208708969, -168.44140625 90.375 M-168.44140625 127.125 C-168.44140625 118.87826525712532, -168.44140625 110.63153051425064, -168.44140625 90.375" stroke="#000000" stroke-width="1.3" fill="none" stroke-dasharray="0 0"/></g><g class="label name" transform="translate(-58.21875, -117.75)" style=""><g><rect class="background" style="stroke: none"/></g><text y="-10.1" style=""><tspan class="text-outer-tspan row" x="0" y="-0.1em" dy="1.1em"><tspan font-style="normal" class="text-inner-tspan" font-weight="normal">attempt_questions</tspan></tspan></text></g><g class="label attribute-type" transform="translate(-155.94140625, -81)" style=""><g><rect class="background" style="stroke: none"/></g><text y="-10.1" style=""><tspan class="text-outer-tspan row" x="0" y="-0.1em" dy="1.1em"><tspan font-style="normal" class="text-inner-tspan" font-weight="normal">uuid</tspan></tspan></text></g><g class="label attribute-name" transform="translate(-94.26953125, -81)" style=""><g><rect class="background" style="stroke: none"/></g><text y="-10.1" style=""><tspan class="text-outer-tspan row" x="0" y="-0.1em" dy="1.1em"><tspan font-style="normal" class="text-inner-tspan" font-weight="normal">id</tspan></tspan></text></g><g class="label attribute-keys" transform="translate(6.39453125, -81)" style=""><g><rect class="background" style="stroke: none"/></g><text y="-10.1" style=""><tspan class="text-outer-tspan row" x="0" y="-0.1em" dy="1.1em"><tspan font-style="normal" class="text-inner-tspan" font-weight="normal">PK</tspan></tspan></text></g><g class="label attribute-comment" transform="translate(52.29296875, -81)" style=""><g><rect class="background" style="stroke: none"/></g><text y="-10.1" style=""><tspan class="text-outer-tspan row" x="0" y="-0.1em" dy="1.1em"/></text></g><g class="label attribute-type" transform="translate(-155.94140625, -45.25)" style=""><g><rect class="background" style="stroke: none"/></g><text y="-10.1" style=""><tspan class="text-outer-tspan row" x="0" y="-0.1em" dy="1.1em"><tspan font-style="normal" class="text-inner-tspan" font-weight="normal">uuid</tspan></tspan></text></g><g class="label attribute-name" transform="translate(-94.26953125, -45.25)" style=""><g><rect class="background" style="stroke: none"/></g><text y="-10.1" style=""><tspan class="text-outer-tspan row" x="0" y="-0.1em" dy="1.1em"><tspan font-style="normal" class="text-inner-tspan" font-weight="normal">attempt_id</tspan></tspan></text></g><g class="label attribute-keys" transform="translate(6.39453125, -45.25)" style=""><g><rect class="background" style="stroke: none"/></g><text y="-10.1" style=""><tspan class="text-outer-tspan row" x="0" y="-0.1em" dy="1.1em"><tspan font-style="normal" class="text-inner-tspan" font-weight="normal">FK</tspan></tspan></text></g><g class="label attribute-comment" transform="translate(52.29296875, -45.25)" style=""><g><rect class="background" style="stroke: none"/></g><text y="-10.1" style=""><tspan class="text-outer-tspan row" x="0" y="-0.1em" dy="1.1em"/></text></g><g class="label attribute-type" transform="translate(-155.94140625, -8.5)" style=""><g><rect class="background" style="stroke: none"/></g><text y="-10.1" style=""><tspan class="text-outer-tspan row" x="0" y="-0.1em" dy="1.1em"><tspan font-style="normal" class="text-inner-tspan" font-weight="normal">uuid</tspan></tspan></text></g><g class="label attribute-name" transform="translate(-94.26953125, -8.5)" style=""><g><rect class="background" style="stroke: none"/></g><text y="-10.1" style=""><tspan class="text-outer-tspan row" x="0" y="-0.1em" dy="1.1em"><tspan font-style="normal" class="text-inner-tspan" font-weight="normal">question_id</tspan></tspan></text></g><g class="label attribute-keys" transform="translate(6.39453125, -8.5)" style=""><g><rect class="background" style="stroke: none"/></g><text y="-10.1" style=""><tspan class="text-outer-tspan row" x="0" y="-0.1em" dy="1.1em"><tspan font-style="normal" class="text-inner-tspan" font-weight="normal">FK</tspan></tspan></text></g><g class="label attribute-comment" transform="translate(52.29296875, -8.5)" style=""><g><rect class="background" style="stroke: none"/></g><text y="-10.1" style=""><tspan class="text-outer-tspan row" x="0" y="-0.1em" dy="1.1em"><tspan font-style="normal" class="text-inner-tspan" font-weight="normal">snapshot</tspan><tspan font-style="normal" class="text-inner-tspan" font-weight="normal"> at</tspan><tspan font-style="normal" class="text-inner-tspan" font-weight="normal"> start</tspan></tspan></text></g><g class="label attribute-type" transform="translate(-155.94140625, 28.25)" style=""><g><rect class="background" style="stroke: none"/></g><text y="-10.1" style=""><tspan class="text-outer-tspan row" x="0" y="-0.1em" dy="1.1em"><tspan font-style="normal" class="text-inner-tspan" font-weight="normal">int</tspan></tspan></text></g><g class="label attribute-name" transform="translate(-94.26953125, 28.25)" style=""><g><rect class="background" style="stroke: none"/></g><text y="-10.1" style=""><tspan class="text-outer-tspan row" x="0" y="-0.1em" dy="1.1em"><tspan font-style="normal" class="text-inner-tspan" font-weight="normal">marks</tspan></tspan></text></g><g class="label attribute-keys" transform="translate(6.39453125, 28.25)" style=""><g><rect class="background" style="stroke: none"/></g><text y="-10.1" style=""><tspan class="text-outer-tspan row" x="0" y="-0.1em" dy="1.1em"/></text></g><g class="label attribute-comment" transform="translate(52.29296875, 28.25)" style=""><g><rect class="background" style="stroke: none"/></g><text y="-10.1" style=""><tspan class="text-outer-tspan row" x="0" y="-0.1em" dy="1.1em"/></text></g><g class="label attribute-type" transform="translate(-155.94140625, 64)" style=""><g><rect class="background" style="stroke: none"/></g><text y="-10.1" style=""><tspan class="text-outer-tspan row" x="0" y="-0.1em" dy="1.1em"><tspan font-style="normal" class="text-inner-tspan" font-weight="normal">text</tspan></tspan></text></g><g class="label attribute-name" transform="translate(-94.26953125, 64)" style=""><g><rect class="background" style="stroke: none"/></g><text y="-10.1" style=""><tspan class="text-outer-tspan row" x="0" y="-0.1em" dy="1.1em"><tspan font-style="normal" class="text-inner-tspan" font-weight="normal">stem</tspan></tspan></text></g><g class="label attribute-keys" transform="translate(6.39453125, 64)" style=""><g><rect class="background" style="stroke: none"/></g><text y="-10.1" style=""><tspan class="text-outer-tspan row" x="0" y="-0.1em" dy="1.1em"/></text></g><g class="label attribute-comment" transform="translate(52.29296875, 64)" style=""><g><rect class="background" style="stroke: none"/></g><text y="-10.1" style=""><tspan class="text-outer-tspan row" x="0" y="-0.1em" dy="1.1em"/></text></g><g class="label attribute-type" transform="translate(-155.94140625, 99.75)" style=""><g><rect class="background" style="stroke: none"/></g><text y="-10.1" style=""><tspan class="text-outer-tspan row" x="0" y="-0.1em" dy="1.1em"><tspan font-style="normal" class="text-inner-tspan" font-weight="normal">jsonb</tspan></tspan></text></g><g class="label attribute-name" transform="translate(-94.26953125, 99.75)" style=""><g><rect class="background" style="stroke: none"/></g><text y="-10.1" style=""><tspan class="text-outer-tspan row" x="0" y="-0.1em" dy="1.1em"><tspan font-style="normal" class="text-inner-tspan" font-weight="normal">payload</tspan></tspan></text></g><g class="label attribute-keys" transform="translate(6.39453125, 99.75)" style=""><g><rect class="background" style="stroke: none"/></g><text y="-10.1" style=""><tspan class="text-outer-tspan row" x="0" y="-0.1em" dy="1.1em"/></text></g><g class="label attribute-comment" transform="translate(52.29296875, 99.75)" style=""><g><rect class="background" style="stroke: none"/></g><text y="-10.1" style=""><tspan class="text-outer-tspan row" x="0" y="-0.1em" dy="1.1em"/></text></g><g class="divider"><path d="M-168.44140625 -90.37505 L-168.44140625 -90.37495 L168.44140625 -90.37495 L168.44140625 -90.37505" stroke="none" stroke-width="0" fill="#ffffff" fill-rule="evenodd"/><path d="M-168.44140625 -90.37505 C-168.44140625 -90.37502829559358, -168.44140625 -90.37500659118716, -168.44140625 -90.37495 M-168.44140625 -90.37505 C-168.44140625 -90.37502777933665, -168.44140625 -90.37500555867331, -168.44140625 -90.37495 M-168.44140625 -90.37495 C-72.57600498572697 -90.37495, 23.289396278546064 -90.37495, 168.44140625 -90.37495 M-168.44140625 -90.37495 C-72.08689790831578 -90.37495, 24.267610433368446 -90.37495, 168.44140625 -90.37495 M168.44140625 -90.37495 C168.44140625 -90.37497961103176, 168.44140625 -90.37500922206353, 168.44140625 -90.37505 M168.44140625 -90.37495 C168.44140625 -90.37497727940915, 168.44140625 -90.37500455881829, 168.44140625 -90.37505 M168.44140625 -90.37505 C100.70385165776563 -90.37505, 32.96629706553125 -90.37505, -168.44140625 -90.37505 M168.44140625 -90.37505 C41.600035349043154 -90.37505, -85.24133555191369 -90.37505, -168.44140625 -90.37505" stroke="#000000" stroke-width="1.3" fill="none" stroke-dasharray="0 0"/></g><g class="divider"><path d="M-106.76958125 -90.375 L-106.76948125 -90.375 L-106.76948125 127.125 L-106.76958125 127.125" stroke="none" stroke-width="0" fill="#ffffff" fill-rule="evenodd"/><path d="M-106.76958125 -90.375 C-106.76954804570916 -90.375, -106.76951484141833 -90.375, -106.76948125 -90.375 M-106.76958125 -90.375 C-106.76955434021319 -90.375, -106.76952743042636 -90.375, -106.76948125 -90.375 M-106.76948125 -90.375 C-106.76948125 -35.223938204866414, -106.76948125 19.927123590267172, -106.76948125 127.125 M-106.76948125 -90.375 C-106.76948125 -29.530823318329865, -106.76948125 31.31335336334027, -106.76948125 127.125 M-106.76948125 127.125 C-106.76952111419628 127.125, -106.76956097839258 127.125, -106.76958125 127.125 M-106.76948125 127.125 C-106.7695077436377 127.125, -106.7695342372754 127.125, -106.76958125 127.125 M-106.76958125 127.125 C-106.76958125 82.8312396106881, -106.76958125 38.537479221376216, -106.76958125 -90.375 M-106.76958125 127.125 C-106.76958125 59.6970104923774, -106.76958125 -7.730979015245197, -106.76958125 -90.375" stroke="#000000" stroke-width="1.3" fill="none" stroke-dasharray="0 0"/></g><g class="divider"><path d="M-6.10551875 -90.375 L-6.10541875 -90.375 L-6.10541875 127.125 L-6.10551875 127.125" stroke="none" stroke-width="0" fill="#ffffff" fill-rule="evenodd"/><path d="M-6.10551875 -90.375 C-6.105483000496741 -90.375, -6.105447250993482 -90.375, -6.10541875 -90.375 M-6.10551875 -90.375 C-6.105481205862384 -90.375, -6.105443661724769 -90.375, -6.10541875 -90.375 M-6.10541875 -90.375 C-6.10541875 -12.803255793541894, -6.10541875 64.76848841291621, -6.10541875 127.125 M-6.10541875 -90.375 C-6.10541875 -37.80144831354838, -6.10541875 14.772103372903246, -6.10541875 127.125 M-6.10541875 127.125 C-6.1054464186885635 127.125, -6.105474087377127 127.125, -6.10551875 127.125 M-6.10541875 127.125 C-6.105442373169866 127.125, -6.105465996339732 127.125, -6.10551875 127.125 M-6.10551875 127.125 C-6.10551875 68.58027940166829, -6.10551875 10.03555880333657, -6.10551875 -90.375 M-6.10551875 127.125 C-6.10551875 55.76115806775569, -6.10551875 -15.602683864488625, -6.10551875 -90.375" stroke="#000000" stroke-width="1.3" fill="none" stroke-dasharray="0 0"/></g><g class="divider"><path d="M39.79291875 -90.375 L39.79301875 -90.375 L39.79301875 127.125 L39.79291875 127.125" stroke="none" stroke-width="0" fill="#ffffff" fill-rule="evenodd"/><path d="M39.79291875 -90.375 C39.7929548990103 -90.375, 39.7929910480206 -90.375, 39.79301875 -90.375 M39.79291875 -90.375 C39.79294768356949 -90.375, 39.792976617138976 -90.375, 39.79301875 -90.375 M39.79301875 -90.375 C39.79301875 -39.7249156892551, 39.79301875 10.925168621489803, 39.79301875 127.125 M39.79301875 -90.375 C39.79301875 -20.102348163394282, 39.79301875 50.170303673211436, 39.79301875 127.125 M39.79301875 127.125 C39.792985567043544 127.125, 39.79295238408709 127.125, 39.79291875 127.125 M39.79301875 127.125 C39.792991844748016 127.125, 39.79296493949604 127.125, 39.79291875 127.125 M39.79291875 127.125 C39.79291875 67.07029262077697, 39.79291875 7.01558524155395, 39.79291875 -90.375 M39.79291875 127.125 C39.79291875 61.753024831022316, 39.79291875 -3.6189503379553685, 39.79291875 -90.375" stroke="#000000" stroke-width="1.3" fill="none" stroke-dasharray="0 0"/></g><g class="divider"><path d="M-168.44140625 -90.37505 L-168.44140625 -90.37495 L168.44140625 -90.37495 L168.44140625 -90.37505" stroke="none" stroke-width="0" fill="#ffffff" fill-rule="evenodd"/><path d="M-168.44140625 -90.37505 C-168.44140625 -90.3750146691117, -168.44140625 -90.37497933822341, -168.44140625 -90.37495 M-168.44140625 -90.37505 C-168.44140625 -90.37502876396576, -168.44140625 -90.3750075279315, -168.44140625 -90.37495 M-168.44140625 -90.37495 C-47.84275049974461 -90.37495, 72.75590525051078 -90.37495, 168.44140625 -90.37495 M-168.44140625 -90.37495 C-43.538495500094 -90.37495, 81.364415249812 -90.37495, 168.44140625 -90.37495 M168.44140625 -90.37495 C168.44140625 -90.37498379870095, 168.44140625 -90.37501759740191, 168.44140625 -90.37505 M168.44140625 -90.37495 C168.44140625 -90.37497090856476, 168.44140625 -90.37499181712954, 168.44140625 -90.37505 M168.44140625 -90.37505 C98.42123226618284 -90.37505, 28.401058282365682 -90.37505, -168.44140625 -90.37505 M168.44140625 -90.37505 C81.30203791107692 -90.37505, -5.837330427846155 -90.37505, -168.44140625 -90.37505" stroke="#000000" stroke-width="1.3" fill="none" stroke-dasharray="0 0"/></g></g><g class="node default" id="my-svg-entity-attempt_responses-2" data-look="classic" transform="translate(291.72265625, 886.875)"><g class="outer-path" style=""><path d="M-151.828125 -91.875 L151.828125 -91.875 L151.828125 91.875 L-151.828125 91.875" stroke="none" stroke-width="0" fill="#ffffff"/><path d="M-151.828125 -91.875 C-89.84332901114614 -91.875, -27.858533022292278 -91.875, 151.828125 -91.875 M-151.828125 -91.875 C-66.26443023693308 -91.875, 19.29926452613384 -91.875, 151.828125 -91.875 M151.828125 -91.875 C151.828125 -21.51711268953457, 151.828125 48.84077462093086, 151.828125 91.875 M151.828125 -91.875 C151.828125 -38.945306722439554, 151.828125 13.984386555120892, 151.828125 91.875 M151.828125 91.875 C66.63831678805667 91.875, -18.55149142388666 91.875, -151.828125 91.875 M151.828125 91.875 C83.6793534313671 91.875, 15.53058186273421 91.875, -151.828125 91.875 M-151.828125 91.875 C-151.828125 39.79626082653713, -151.828125 -12.282478346925743, -151.828125 -91.875 M-151.828125 91.875 C-151.828125 41.56903392373511, -151.828125 -8.736932152529775, -151.828125 -91.875" stroke="#000000" stroke-width="1.3" fill="none" stroke-dasharray="0 0"/></g><g style="" class="row-rect-odd"><path d="M-151.828125 -55.125 L151.828125 -55.125 L151.828125 -18.375 L-151.828125 -18.375" stroke="none" stroke-width="0" fill="#ffffff"/><path d="M-151.828125 -55.125 C-50.34749088034809 -55.125, 51.13314323930382 -55.125, 151.828125 -55.125 M-151.828125 -55.125 C-67.25568308738788 -55.125, 17.31675882522424 -55.125, 151.828125 -55.125 M151.828125 -55.125 C151.828125 -41.61218762629032, 151.828125 -28.09937525258065, 151.828125 -18.375 M151.828125 -55.125 C151.828125 -47.52347880277169, 151.828125 -39.92195760554338, 151.828125 -18.375 M151.828125 -18.375 C64.76256443455858 -18.375, -22.302996130882832 -18.375, -151.828125 -18.375 M151.828125 -18.375 C83.34208404960683 -18.375, 14.85604309921365 -18.375, -151.828125 -18.375 M-151.828125 -18.375 C-151.828125 -33.0140326651691, -151.828125 -47.653065330338194, -151.828125 -55.125 M-151.828125 -18.375 C-151.828125 -31.82302014517176, -151.828125 -45.27104029034352, -151.828125 -55.125" stroke="#000000" stroke-width="1.3" fill="none" stroke-dasharray="0 0"/></g><g style="" class="row-rect-even"><path d="M-151.828125 -18.375 L151.828125 -18.375 L151.828125 18.375 L-151.828125 18.375" stroke="none" stroke-width="0" fill="#ffffff"/><path d="M-151.828125 -18.375 C-63.60191753774836 -18.375, 24.624289924503273 -18.375, 151.828125 -18.375 M-151.828125 -18.375 C-49.32007078239447 -18.375, 53.187983435211066 -18.375, 151.828125 -18.375 M151.828125 -18.375 C151.828125 -8.682779552815106, 151.828125 1.0094408943697886, 151.828125 18.375 M151.828125 -18.375 C151.828125 -7.573375698718657, 151.828125 3.2282486025626866, 151.828125 18.375 M151.828125 18.375 C79.52503355689879 18.375, 7.221942113797581 18.375, -151.828125 18.375 M151.828125 18.375 C56.502897701587784 18.375, -38.82232959682443 18.375, -151.828125 18.375 M-151.828125 18.375 C-151.828125 7.8674823751799146, -151.828125 -2.640035249640171, -151.828125 -18.375 M-151.828125 18.375 C-151.828125 10.07869489056129, -151.828125 1.7823897811225784, -151.828125 -18.375" stroke="#000000" stroke-width="1.3" fill="none" stroke-dasharray="0 0"/></g><g style="" class="row-rect-odd"><path d="M-151.828125 18.375 L151.828125 18.375 L151.828125 55.125 L-151.828125 55.125" stroke="none" stroke-width="0" fill="#ffffff"/><path d="M-151.828125 18.375 C-51.691580169345286 18.375, 48.44496466130943 18.375, 151.828125 18.375 M-151.828125 18.375 C-70.644007373517 18.375, 10.540110252966002 18.375, 151.828125 18.375 M151.828125 18.375 C151.828125 26.295078857062027, 151.828125 34.215157714124054, 151.828125 55.125 M151.828125 18.375 C151.828125 29.15446169046144, 151.828125 39.93392338092288, 151.828125 55.125 M151.828125 55.125 C46.19026616933476 55.125, -59.447592661330475 55.125, -151.828125 55.125 M151.828125 55.125 C83.37661430978962 55.125, 14.925103619579232 55.125, -151.828125 55.125 M-151.828125 55.125 C-151.828125 47.11132373887786, -151.828125 39.097647477755714, -151.828125 18.375 M-151.828125 55.125 C-151.828125 44.521049919921815, -151.828125 33.91709983984363, -151.828125 18.375" stroke="#000000" stroke-width="1.3" fill="none" stroke-dasharray="0 0"/></g><g style="" class="row-rect-even"><path d="M-151.828125 55.125 L151.828125 55.125 L151.828125 91.875 L-151.828125 91.875" stroke="none" stroke-width="0" fill="#ffffff"/><path d="M-151.828125 55.125 C-56.762913190898075 55.125, 38.30229861820385 55.125, 151.828125 55.125 M-151.828125 55.125 C-71.10781864464144 55.125, 9.612487710717119 55.125, 151.828125 55.125 M151.828125 55.125 C151.828125 68.54370820539927, 151.828125 81.96241641079855, 151.828125 91.875 M151.828125 55.125 C151.828125 67.91221862108753, 151.828125 80.69943724217507, 151.828125 91.875 M151.828125 91.875 C82.31295458452196 91.875, 12.797784169043922 91.875, -151.828125 91.875 M151.828125 91.875 C37.10745465951638 91.875, -77.61321568096724 91.875, -151.828125 91.875 M-151.828125 91.875 C-151.828125 82.23261714285722, -151.828125 72.59023428571444, -151.828125 55.125 M-151.828125 91.875 C-151.828125 78.78550875268002, -151.828125 65.69601750536005, -151.828125 55.125" stroke="#000000" stroke-width="1.3" fill="none" stroke-dasharray="0 0"/></g><g class="label name" transform="translate(-59.1015625, -82.5)" style=""><g><rect class="background" style="stroke: none"/></g><text y="-10.1" style=""><tspan class="text-outer-tspan row" x="0" y="-0.1em" dy="1.1em"><tspan font-style="normal" class="text-inner-tspan" font-weight="normal">attempt_responses</tspan></tspan></text></g><g class="label attribute-type" transform="translate(-139.328125, -45.75)" style=""><g><rect class="background" style="stroke: none"/></g><text y="-10.1" style=""><tspan class="text-outer-tspan row" x="0" y="-0.1em" dy="1.1em"><tspan font-style="normal" class="text-inner-tspan" font-weight="normal">uuid</tspan></tspan></text></g><g class="label attribute-name" transform="translate(-62.671875, -45.75)" style=""><g><rect class="background" style="stroke: none"/></g><text y="-10.1" style=""><tspan class="text-outer-tspan row" x="0" y="-0.1em" dy="1.1em"><tspan font-style="normal" class="text-inner-tspan" font-weight="normal">attempt_question_id</tspan></tspan></text></g><g class="label attribute-keys" transform="translate(93.9765625, -45.75)" style=""><g><rect class="background" style="stroke: none"/></g><text y="-10.1" style=""><tspan class="text-outer-tspan row" x="0" y="-0.1em" dy="1.1em"><tspan font-style="normal" class="text-inner-tspan" font-weight="normal">PK,FK</tspan></tspan></text></g><g class="label attribute-comment" transform="translate(164.328125, -45.75)" style=""><g><rect class="background" style="stroke: none"/></g><text y="-10.1" style=""><tspan class="text-outer-tspan row" x="0" y="-0.1em" dy="1.1em"/></text></g><g class="label attribute-type" transform="translate(-139.328125, -9)" style=""><g><rect class="background" style="stroke: none"/></g><text y="-10.1" style=""><tspan class="text-outer-tspan row" x="0" y="-0.1em" dy="1.1em"><tspan font-style="normal" class="text-inner-tspan" font-weight="normal">jsonb</tspan></tspan></text></g><g class="label attribute-name" transform="translate(-62.671875, -9)" style=""><g><rect class="background" style="stroke: none"/></g><text y="-10.1" style=""><tspan class="text-outer-tspan row" x="0" y="-0.1em" dy="1.1em"><tspan font-style="normal" class="text-inner-tspan" font-weight="normal">answer</tspan></tspan></text></g><g class="label attribute-keys" transform="translate(93.9765625, -9)" style=""><g><rect class="background" style="stroke: none"/></g><text y="-10.1" style=""><tspan class="text-outer-tspan row" x="0" y="-0.1em" dy="1.1em"/></text></g><g class="label attribute-comment" transform="translate(164.328125, -9)" style=""><g><rect class="background" style="stroke: none"/></g><text y="-10.1" style=""><tspan class="text-outer-tspan row" x="0" y="-0.1em" dy="1.1em"/></text></g><g class="label attribute-type" transform="translate(-139.328125, 27.75)" style=""><g><rect class="background" style="stroke: none"/></g><text y="-10.1" style=""><tspan class="text-outer-tspan row" x="0" y="-0.1em" dy="1.1em"><tspan font-style="normal" class="text-inner-tspan" font-weight="normal">boolean</tspan></tspan></text></g><g class="label attribute-name" transform="translate(-62.671875, 27.75)" style=""><g><rect class="background" style="stroke: none"/></g><text y="-10.1" style=""><tspan class="text-outer-tspan row" x="0" y="-0.1em" dy="1.1em"><tspan font-style="normal" class="text-inner-tspan" font-weight="normal">is_correct</tspan></tspan></text></g><g class="label attribute-keys" transform="translate(93.9765625, 27.75)" style=""><g><rect class="background" style="stroke: none"/></g><text y="-10.1" style=""><tspan class="text-outer-tspan row" x="0" y="-0.1em" dy="1.1em"/></text></g><g class="label attribute-comment" transform="translate(164.328125, 27.75)" style=""><g><rect class="background" style="stroke: none"/></g><text y="-10.1" style=""><tspan class="text-outer-tspan row" x="0" y="-0.1em" dy="1.1em"/></text></g><g class="label attribute-type" transform="translate(-139.328125, 64.5)" style=""><g><rect class="background" style="stroke: none"/></g><text y="-10.1" style=""><tspan class="text-outer-tspan row" x="0" y="-0.1em" dy="1.1em"><tspan font-style="normal" class="text-inner-tspan" font-weight="normal">int</tspan></tspan></text></g><g class="label attribute-name" transform="translate(-62.671875, 64.5)" style=""><g><rect class="background" style="stroke: none"/></g><text y="-10.1" style=""><tspan class="text-outer-tspan row" x="0" y="-0.1em" dy="1.1em"><tspan font-style="normal" class="text-inner-tspan" font-weight="normal">marks_awarded</tspan></tspan></text></g><g class="label attribute-keys" transform="translate(93.9765625, 64.5)" style=""><g><rect class="background" style="stroke: none"/></g><text y="-10.1" style=""><tspan class="text-outer-tspan row" x="0" y="-0.1em" dy="1.1em"/></text></g><g class="label attribute-comment" transform="translate(164.328125, 64.5)" style=""><g><rect class="background" style="stroke: none"/></g><text y="-10.1" style=""><tspan class="text-outer-tspan row" x="0" y="-0.1em" dy="1.1em"/></text></g><g class="divider"><path d="M-151.828125 -55.12505 L-151.828125 -55.12495 L151.828125 -55.12495 L151.828125 -55.12505" stroke="none" stroke-width="0" fill="#ffffff" fill-rule="evenodd"/><path d="M-151.828125 -55.12505 C-151.828125 -55.125016083328894, -151.828125 -55.12498216665779, -151.828125 -55.12495 M-151.828125 -55.12505 C-151.828125 -55.12501537058583, -151.828125 -55.124980741171655, -151.828125 -55.12495 M-151.828125 -55.12495 C-85.20926256266092 -55.12495, -18.59040012532185 -55.12495, 151.828125 -55.12495 M-151.828125 -55.12495 C-48.070014027258324 -55.12495, 55.68809694548335 -55.12495, 151.828125 -55.12495 M151.828125 -55.12495 C151.828125 -55.12497630819622, 151.828125 -55.125002616392436, 151.828125 -55.12505 M151.828125 -55.12495 C151.828125 -55.12498054426405, 151.828125 -55.1250110885281, 151.828125 -55.12505 M151.828125 -55.12505 C62.08220844825071 -55.12505, -27.66370810349858 -55.12505, -151.828125 -55.12505 M151.828125 -55.12505 C31.986638158876744 -55.12505, -87.85484868224651 -55.12505, -151.828125 -55.12505" stroke="#000000" stroke-width="1.3" fill="none" stroke-dasharray="0 0"/></g><g class="divider"><path d="M-75.171925 -55.125 L-75.171825 -55.125 L-75.171825 91.875 L-75.171925 91.875" stroke="none" stroke-width="0" fill="#ffffff" fill-rule="evenodd"/><path d="M-75.171925 -55.125 C-75.17189718270667 -55.125, -75.17186936541334 -55.125, -75.171825 -55.125 M-75.171925 -55.125 C-75.1718894814945 -55.125, -75.171853962989 -55.125, -75.171825 -55.125 M-75.171825 -55.125 C-75.171825 -0.270106825745124, -75.171825 54.58478634850975, -75.171825 91.875 M-75.171825 -55.125 C-75.171825 -16.15535454247445, -75.171825 22.814290915051103, -75.171825 91.875 M-75.171825 91.875 C-75.17185179889566 91.875, -75.17187859779132 91.875, -75.171925 91.875 M-75.171825 91.875 C-75.17186372691823 91.875, -75.17190245383647 91.875, -75.171925 91.875 M-75.171925 91.875 C-75.171925 56.80512645521108, -75.171925 21.73525291042216, -75.171925 -55.125 M-75.171925 91.875 C-75.171925 55.99456900299971, -75.171925 20.114138005999422, -75.171925 -55.125" stroke="#000000" stroke-width="1.3" fill="none" stroke-dasharray="0 0"/></g><g class="divider"><path d="M81.4765125 -55.125 L81.4766125 -55.125 L81.4766125 91.875 L81.4765125 91.875" stroke="none" stroke-width="0" fill="#ffffff" fill-rule="evenodd"/><path d="M81.4765125 -55.125 C81.4765441586067 -55.125, 81.47657581721339 -55.125, 81.4766125 -55.125 M81.4765125 -55.125 C81.4765518655915 -55.125, 81.476591231183 -55.125, 81.4766125 -55.125 M81.4766125 -55.125 C81.4766125 -2.3031949480184437, 81.4766125 50.51861010396311, 81.4766125 91.875 M81.4766125 -55.125 C81.4766125 -0.07378203756266544, 81.4766125 54.97743592487467, 81.4766125 91.875 M81.4766125 91.875 C81.47658790287986 91.875, 81.47656330575971 91.875, 81.4765125 91.875 M81.4766125 91.875 C81.47658625336065 91.875, 81.47656000672131 91.875, 81.4765125 91.875 M81.4765125 91.875 C81.4765125 56.65444829290171, 81.4765125 21.433896585803424, 81.4765125 -55.125 M81.4765125 91.875 C81.4765125 49.81318951060664, 81.4765125 7.751379021213282, 81.4765125 -55.125" stroke="#000000" stroke-width="1.3" fill="none" stroke-dasharray="0 0"/></g><g class="divider"><path d="M-151.828125 -55.12505 L-151.828125 -55.12495 L151.828125 -55.12495 L151.828125 -55.12505" stroke="none" stroke-width="0" fill="#ffffff" fill-rule="evenodd"/><path d="M-151.828125 -55.12505 C-151.828125 -55.125020393793065, -151.828125 -55.12499078758612, -151.828125 -55.12495 M-151.828125 -55.12505 C-151.828125 -55.125021041456726, -151.828125 -55.12499208291346, -151.828125 -55.12495 M-151.828125 -55.12495 C-51.23525396717159 -55.12495, 49.357617065656825 -55.12495, 151.828125 -55.12495 M-151.828125 -55.12495 C-55.98583560015096 -55.12495, 39.85645379969807 -55.12495, 151.828125 -55.12495 M151.828125 -55.12495 C151.828125 -55.124985263728185, 151.828125 -55.12502052745637, 151.828125 -55.12505 M151.828125 -55.12495 C151.828125 -55.124979574638736, 151.828125 -55.125009149277474, 151.828125 -55.12505 M151.828125 -55.12505 C82.34104274557279 -55.12505, 12.853960491145585 -55.12505, -151.828125 -55.12505 M151.828125 -55.12505 C87.88378159076456 -55.12505, 23.9394381815291 -55.12505, -151.828125 -55.12505" stroke="#000000" stroke-width="1.3" fill="none" stroke-dasharray="0 0"/></g></g></g></g></g><defs><filter id="my-svg-drop-shadow" height="130%" width="130%"><feDropShadow dx="4" dy="4" stdDeviation="0" flood-opacity="0.06" flood-color="#000000"/></filter></defs><defs><filter id="my-svg-drop-shadow-small" height="150%" width="150%"><feDropShadow dx="2" dy="2" stdDeviation="0" flood-opacity="0.06" flood-color="#000000"/></filter></defs><linearGradient id="my-svg-gradient" gradientUnits="objectBoundingBox" x1="0%" y1="0%" x2="100%" y2="0%"><stop offset="0%" stop-color="#000000" stop-opacity="1"/><stop offset="100%" stop-color="hsl(0, 0%, 90%)" stop-opacity="1"/></linearGradient><text text-anchor="middle" x="291.72265625" y="-25" class="erDiagramTitleText">CatLium EduTech — Database Schema (3d): Attempt Responses</text></svg>